PathFileType	4	(x/y/z)	S01_M20_T12.trc
DataRate	CameraRate	NumFrames	NumMarkers	Units	OrigDataRate	OrigDataStartFrame	OrigNumFrames
240	240	4	51	mm	240	163	432
Frame#	Time	Sternum			R.Acromium			L.Acromium			Top.Head			R.ASIS			L.ASIS			R.PSIS			L.PSIS			R.Great.Tro			L.Great.Tro			R.Iliac.Crest			L.Iliac.Crest			V.Sacral			R.Thigh.Upper.Post			R.Thigh.Lower.Ant			R.Thigh.Lower.Post			R.Thigh.Upper.Ant			R.Knee.Lat			R.Knee.Med			R.Shank.Upper.Post			R.Shank.Lower.Ant			R.Shank.Lower.Post			R.Shank.Upper.Ant			R.Ankle.Lat			R.Ankle.Med			R.Heel.Upper			R.Heel.Med			R.Heel.Lat			R.Toe.Lat			R.Toe.Med			R.Toe.Tip			L.Thigh.Upper.Post			L.Thigh.Lower.Ant			L.Thigh.Lower.Post			L.Thigh.Upper.Ant			L.Knee.Lat			L.Knee.Med			L.Shank.Upper.Post			L.Shank.Lower.Ant			L.Shank.Lower.Post			L.Shank.Upper.Ant			L.Ankle.Lat			L.Ankle.Med			L.Heel.Upper			L.Heel.Med			L.Heel.Lat			L.Toe.Lat			L.Toe.Med			L.Toe.Tip			Cervical.Spine			Back			
		X1	Y1	Z1	X2	Y2	Z2	X3	Y3	Z3	X4	Y4	Z4	X5	Y5	Z5	X6	Y6	Z6	X7	Y7	Z7	X8	Y8	Z8	X9	Y9	Z9	X10	Y10	Z10	X11	Y11	Z11	X12	Y12	Z12	X13	Y13	Z13	X14	Y14	Z14	X15	Y15	Z15	X16	Y16	Z16	X17	Y17	Z17	X18	Y18	Z18	X19	Y19	Z19	X20	Y20	Z20	X21	Y21	Z21	X22	Y22	Z22	X23	Y23	Z23	X24	Y24	Z24	X25	Y25	Z25	X26	Y26	Z26	X27	Y27	Z27	X28	Y28	Z28	X29	Y29	Z29	X30	Y30	Z30	X31	Y31	Z31	X32	Y32	Z32	X33	Y33	Z33	X34	Y34	Z34	X35	Y35	Z35	X36	Y36	Z36	X37	Y37	Z37	X38	Y38	Z38	X39	Y39	Z39	X40	Y40	Z40	X41	Y41	Z41	X42	Y42	Z42	X43	Y43	Z43	X44	Y44	Z44	X45	Y45	Z45	X46	Y46	Z46	X47	Y47	Z47	X48	Y48	Z48	X49	Y49	Z49	X50	Y50	Z50	X51	Y51	Z51	

163	0.675	-425.94	1268.1	321.69	-520.1	1502.4	527.81	-563	1548.7	204.3	-469.55	1834.2	381.07	-459.57	1017.1	463.08	-478.76	1018	195.94	-705.06	1059	389.18	-714.44	1055.9	286.66	-527.79	966.92	548.45	-590.67	965.41	125.55	-544.23	1105.8	543.36	-595.14	1105	135.62	-723.72	1021.4	337.26	-462.77	665.72	509.7	-378.09	617.82	473.12	-437.78	583.28	482.86	-400.23	702.17	500.8	-401	529.46	472.51	-408.25	537.92	330.93	-451.83	368.03	490.47	-393.69	287.53	441.36	-456.3	298.29	477.56	-392.34	358.47	461.58	-462.45	100.62	433.03	-431.55	109.46	339.54	-533.4	72.658	372.84	-516.35	43.993	344	-521.93	42.568	408.51	-331.44	36.871	468.29	-298.81	42.238	343.54	-236.56	61.745	398.89	-583.88	679.32	134.2	-495.31	618.21	106.35	-561.77	590.72	141.75	-524.38	709.12	103.46	-516.79	519.53	109.87	-458.78	503.03	251.18	-641.03	473.48	107.12	-670.62	367.7	126.02	-701.95	424.24	115.81	-611.74	415.78	113.88	-873.53	306.95	160.04	-837.62	281.59	250.53	-928.55	347.71	220.51	-939.86	325.17	256	-951.98	329.56	193.88	-868.43	148.26	128.26	-830.08	120.02	242.67	-797.2	75.543	181.17	-623.13	1586.1	383.35	-721.26	1275.1	374.45
164	0.67917	-420.88	1269.3	322.03	-514.88	1503.7	528.34	-558.23	1549.9	204.86	-464.28	1835.4	381.48	-454.23	1017.9	463.38	-473.63	1019.5	196.23	-699.79	1060.2	389.73	-709.15	1057.2	287.21	-522.79	967.71	548.76	-585.23	966.96	125.91	-538.43	1106.9	543.57	-590.3	1106.5	136.26	-718.49	1022.7	337.78	-459.74	666.01	510.07	-375.35	617.53	473.58	-435.3	583.43	483.24	-396.96	702.05	501.24	-398.95	529.32	472.91	-405.93	537.82	331.33	-450.6	368.1	490.76	-392.77	287.37	441.64	-455.36	298.37	477.8	-391.12	358.29	461.9	-462.32	100.71	433.08	-431.38	109.57	339.62	-533.33	72.78	372.89	-516.33	44.11	344.04	-521.89	42.654	408.54	-331.37	36.789	468.35	-298.77	42.206	343.56	-236.48	61.521	398.96	-574.79	680.65	134.11	-485.74	620.47	106.43	-551.91	592.35	141.68	-515.69	711.06	103.45	-506.28	521.69	110.02	-448.43	505.64	251.51	-630.15	475.21	107.2	-659.22	369.23	125.91	-690.78	425.62	115.65	-600.56	417.66	113.87	-861.93	307.39	159.66	-825.91	282.52	250.26	-917.68	347.39	219.93	-928.74	324.65	255.28	-940.77	328.98	193.25	-854.64	148.92	127.85	-816.25	121.15	242.34	-782.63	77.223	180.91	-618.05	1587.3	383.97	-716.07	1276.3	375.34
165	0.68333	-415.84	1270.6	322.37	-509.68	1505	528.85	-553.48	1551.1	205.41	-459.03	1836.5	381.84	-448.93	1018.7	463.68	-468.5	1021	196.54	-694.55	1061.3	390.22	-703.86	1058.5	287.71	-517.84	968.51	549.06	-579.76	968.51	126.25	-532.69	1108.1	543.74	-585.39	1108.1	136.88	-713.26	1023.9	338.24	-456.77	666.3	510.46	-372.68	617.24	474.05	-432.9	583.59	483.63	-393.74	701.92	501.68	-396.96	529.18	473.31	-403.65	537.73	331.73	-449.41	368.16	491.05	-391.89	287.22	441.93	-454.46	298.45	478.05	-389.95	358.13	462.24	-462.2	100.79	433.13	-431.21	109.67	339.71	-533.25	72.903	372.93	-516.3	44.23	344.08	-521.85	42.741	408.57	-331.32	36.708	468.42	-298.72	42.185	343.59	-236.4	61.308	399.04	-565.78	682.04	133.97	-476.23	622.78	106.51	-542.13	594.03	141.58	-507.08	713.05	103.44	-495.82	523.87	110.17	-438.15	508.31	251.83	-619.3	476.84	107.23	-647.77	370.66	125.81	-679.6	426.87	115.46	-589.36	419.47	113.86	-850.24	307.55	159.23	-814.13	283.27	249.98	-906.76	346.8	219.25	-917.58	323.85	254.46	-929.49	328.09	192.52	-840.65	149.32	127.52	-802.24	122.15	242.14	-767.84	78.752	180.82	-613	1588.5	384.57	-710.89	1277.5	376.2
166	0.6875	-410.81	1271.9	322.72	-504.51	1506.3	529.34	-548.76	1552.4	205.95	-453.8	1837.7	382.15	-443.67	1019.6	464	-463.35	1022.6	196.89	-689.33	1062.5	390.66	-698.56	1059.7	288.15	-512.93	969.32	549.37	-574.25	970.06	126.57	-527.03	1109.4	543.9	-580.4	1109.6	137.49	-708.02	1025.2	338.63	-453.85	666.59	510.85	-370.07	616.95	474.53	-430.55	583.76	484.02	-390.57	701.79	502.14	-395.04	529.04	473.73	-401.44	537.65	332.14	-448.27	368.23	491.34	-391.04	287.09	442.23	-453.6	298.54	478.3	-388.83	357.97	462.58	-462.07	100.88	433.18	-431.04	109.78	339.8	-533.18	73.028	372.98	-516.27	44.353	344.12	-521.81	42.83	408.6	-331.26	36.626	468.48	-298.67	42.171	343.63	-236.33	61.106	399.12	-556.86	683.46	133.79	-466.78	625.11	106.6	-532.43	595.75	141.44	-498.53	715.07	103.42	-485.41	526.06	110.34	-427.94	511.03	252.16	-608.48	478.36	107.21	-636.27	371.98	125.72	-668.41	427.97	115.23	-578.15	421.2	113.85	-838.46	307.46	158.76	-802.29	283.83	249.68	-895.78	345.93	218.49	-906.36	322.79	253.55	-918.13	326.91	191.71	-826.46	149.46	127.27	-788.08	123	242.04	-752.83	80.131	180.88	-607.96	1589.6	385.16	-705.71	1278.6	377.04
